<svg width="24" height="24" viewBox="0 0 24 24" fill="none" xmlns="http://www.w3.org/2000/svg">
<g clip-path="url(#clip0_835_25)">
<path d="M19.9559 4.6142C19.9386 4.49325 19.8349 4.42414 19.7485 4.42414C19.6622 4.42414 17.9516 4.38958 17.9516 4.38958C17.9516 4.38958 16.5176 3.00735 16.3794 2.85185C16.2411 2.71363 15.9647 2.74818 15.861 2.78274C15.861 2.78274 15.5846 2.86913 15.1353 3.00735C15.0662 2.76546 14.9453 2.47174 14.7898 2.16074C14.2887 1.19317 13.5285 0.674836 12.63 0.674836C12.5609 0.674836 12.5091 0.674836 12.44 0.692114C12.4054 0.657558 12.3882 0.623002 12.3536 0.605724C11.9562 0.191055 11.4552 -0.0162801 10.8504 0.000997787C9.69281 0.0355536 8.53519 0.882171 7.5849 2.36807C6.92834 3.42202 6.42728 4.73514 6.27178 5.75454C4.94138 6.16921 4.00838 6.46293 3.97382 6.46293C3.29998 6.67027 3.28271 6.68754 3.19632 7.32683C3.16176 7.81061 1.39941 21.4429 1.39941 21.4429L16.1893 24L22.5994 22.4104C22.5821 22.4104 19.9732 4.73514 19.9559 4.6142ZM14.3924 3.24924C14.0468 3.35291 13.6667 3.47386 13.2521 3.61208C13.2521 3.02463 13.1657 2.19529 12.9065 1.50418C13.7877 1.6424 14.2196 2.64452 14.3924 3.24924ZM12.4745 3.83669C11.697 4.07858 10.8504 4.33775 10.0038 4.59692C10.2457 3.68119 10.6949 2.78274 11.2478 2.17801C11.4552 1.9534 11.7489 1.71151 12.0772 1.57329C12.4227 2.24712 12.4918 3.19741 12.4745 3.83669ZM10.885 0.778503C11.1614 0.778503 11.386 0.830337 11.5761 0.96856C11.2651 1.12406 10.9541 1.36595 10.6776 1.67695C9.9347 2.47174 9.36453 3.69847 9.13991 4.89064C8.43152 5.11526 7.7404 5.32259 7.1184 5.51265C7.53307 3.62936 9.10536 0.830337 10.885 0.778503Z" fill="#34A1FF"/>
<path d="M19.7487 4.42406C19.6623 4.42406 17.9518 4.3895 17.9518 4.3895C17.9518 4.3895 16.5177 3.00727 16.3795 2.85177C16.3277 2.79994 16.2586 2.76538 16.1895 2.76538V23.9999L22.5996 22.4104C22.5996 22.4104 19.9906 4.73506 19.9733 4.61412C19.9388 4.49317 19.8351 4.42406 19.7487 4.42406Z" fill="#0089FF"/>
<path d="M12.6301 7.72415L11.8872 10.5059C11.8872 10.5059 11.0579 10.1258 10.073 10.1949C8.62167 10.2813 8.62167 11.197 8.62167 11.4216C8.70806 12.6656 11.9736 12.9421 12.1636 15.862C12.3019 18.16 10.9542 19.7323 8.9845 19.8532C6.63471 19.9742 5.33887 18.5919 5.33887 18.5919L5.83993 16.4668C5.83993 16.4668 7.15305 17.4516 8.18972 17.3825C8.86356 17.3479 9.12273 16.7778 9.08817 16.3977C8.9845 14.7735 6.32371 14.8772 6.15093 12.1991C6.01271 9.953 7.48133 7.68959 10.7296 7.48226C11.9909 7.39587 12.6301 7.72415 12.6301 7.72415Z" fill="white"/>
</g>
<defs>
<clipPath id="clip0_835_25">
<rect width="24" height="24" fill="white"/>
</clipPath>
</defs>
</svg>
