<svg width="24" height="24" viewBox="0 0 24 24" fill="none" xmlns="http://www.w3.org/2000/svg">
<g clip-path="url(#clip0_835_38)">
<path d="M19.9569 4.6142C19.9396 4.49325 19.8359 4.42414 19.7495 4.42414C19.6631 4.42414 17.9526 4.38958 17.9526 4.38958C17.9526 4.38958 16.5186 3.00735 16.3803 2.85185C16.2421 2.71363 15.9657 2.74818 15.862 2.78274C15.862 2.78274 15.5855 2.86913 15.1363 3.00735C15.0672 2.76546 14.9463 2.47174 14.7908 2.16074C14.2897 1.19317 13.5295 0.674836 12.631 0.674836C12.5619 0.674836 12.5101 0.674836 12.441 0.692114C12.4064 0.657558 12.3891 0.623002 12.3546 0.605724C11.9572 0.191055 11.4561 -0.0162801 10.8514 0.000997787C9.69378 0.0355536 8.53616 0.882171 7.58588 2.36807C6.92932 3.42202 6.42826 4.73514 6.27276 5.75454C4.94236 6.16921 4.00935 6.46293 3.9748 6.46293C3.30096 6.67027 3.28368 6.68754 3.19729 7.32683C3.16274 7.81061 1.40039 21.4429 1.40039 21.4429L16.1903 24L22.6004 22.4104C22.5831 22.4104 19.9741 4.73514 19.9569 4.6142ZM14.3934 3.24924C14.0478 3.35291 13.6677 3.47386 13.253 3.61208C13.253 3.02463 13.1666 2.19529 12.9075 1.50418C13.7886 1.6424 14.2206 2.64452 14.3934 3.24924ZM12.4755 3.83669C11.698 4.07858 10.8514 4.33775 10.0048 4.59692C10.2467 3.68119 10.6959 2.78274 11.2488 2.17801C11.4561 1.9534 11.7499 1.71151 12.0781 1.57329C12.4237 2.24712 12.4928 3.19741 12.4755 3.83669ZM10.886 0.778503C11.1624 0.778503 11.387 0.830337 11.5771 0.96856C11.2661 1.12406 10.9551 1.36595 10.6786 1.67695C9.93567 2.47174 9.3655 3.69847 9.14089 4.89064C8.4325 5.11526 7.74138 5.32259 7.11938 5.51265C7.53404 3.62936 9.10633 0.830337 10.886 0.778503Z" fill="white"/>
<path d="M19.7497 4.42406C19.6633 4.42406 17.9528 4.3895 17.9528 4.3895C17.9528 4.3895 16.5187 3.00727 16.3805 2.85177C16.3287 2.79994 16.2595 2.76538 16.1904 2.76538V23.9999L22.6005 22.4104C22.6005 22.4104 19.9916 4.73506 19.9743 4.61412C19.9397 4.49317 19.8361 4.42406 19.7497 4.42406Z" fill="#E7E7E7"/>
<path d="M12.6311 7.72415L11.8882 10.5059C11.8882 10.5059 11.0588 10.1258 10.074 10.1949C8.62264 10.2813 8.62264 11.197 8.62264 11.4216C8.70903 12.6656 11.9746 12.9421 12.1646 15.862C12.3028 18.16 10.9552 19.7323 8.98548 19.8532C6.63569 19.9742 5.33984 18.5919 5.33984 18.5919L5.8409 16.4668C5.8409 16.4668 7.15402 17.4516 8.1907 17.3825C8.86454 17.3479 9.1237 16.7778 9.08915 16.3977C8.98548 14.7735 6.32468 14.8772 6.15191 12.1991C6.01368 9.953 7.4823 7.68959 10.7305 7.48226C11.9918 7.39587 12.6311 7.72415 12.6311 7.72415Z" fill="#0089FF"/>
</g>
<defs>
<clipPath id="clip0_835_38">
<rect width="24" height="24" fill="white"/>
</clipPath>
</defs>
</svg>
