<svg width="1200" height="1200" viewBox="0 0 1200 1200" fill="none" xmlns="http://www.w3.org/2000/svg">
<rect width="1200" height="1200" rx="300" fill="#0089FF"/>
<path d="M1023.89 803.687C1052.23 836.391 1052.21 866.451 1023.88 899.095C1002.57 919.974 969.883 935.794 943.484 950.724L759.064 1055.15C742.41 1064.58 723.256 1076.53 705.548 1083.78C646.027 1108.16 572.854 1109.75 511.813 1090.3C481.053 1080.5 449.187 1060.01 421.263 1044.2L239.333 941.168C221.051 930.856 199.873 920.58 184.116 906.914C148.21 875.759 144.965 839.532 175.458 804.092C177.082 804.758 181.512 808.831 182.999 810.235C194.293 820.91 208.118 828.179 221.647 835.817L452.218 966.35C468.798 975.736 484.086 984.935 502.043 991.586C530.429 1002.1 560.96 1007.3 591.164 1008.13C627.514 1009.41 663.777 1003.75 698.013 991.448C718.208 983.986 740.195 970.465 759.252 959.662L941.784 856.302C969.75 840.495 1000.58 825.782 1023.89 803.687Z" fill="white"/>
<path d="M1023.8 628.345C1052.32 661.122 1051.89 690.474 1024.24 723.433C1006.08 741.038 993.233 747.217 971.64 759.448L755.799 881.648C740.04 890.568 722.919 901.201 706.203 908.119C646.138 932.98 573.187 934.42 511.471 914.957C482.635 905.861 453.234 887.004 427.026 872.164L243.008 767.945C224.548 757.535 202.299 746.109 185.943 733.17C170.35 720.836 156.319 701.397 154.869 681.063C153.302 659.076 162.032 644.437 175.601 628.46C181.803 632.902 187.082 639.741 195.4 644.927C217.316 658.586 240.298 671.054 262.769 683.775L447.432 788.37C464.666 798.131 482.598 809.158 501.384 816.027C562.979 838.564 635.717 838.686 697.374 816.318C718.435 808.68 739.325 795.602 758.782 784.581L940.164 681.856C967.628 666.339 1001.31 650.168 1023.8 628.345Z" fill="white"/>
<path fill-rule="evenodd" clip-rule="evenodd" d="M434.183 300.733C444.243 319.304 451.445 326.785 472.202 334.446C483.943 338.779 495.23 339.985 507.457 341.921L555.09 349.532C569.887 351.903 589.413 353.091 600.857 363.869C604.084 366.907 608.261 376.263 610.559 380.592C617.578 393.82 624.109 407.453 631.48 420.496C637.466 430.96 650.205 437.648 661.644 440.27C677.518 443.908 697.004 440.933 710.561 431.625C715.922 427.945 722.888 421.739 728.057 417.394L755.055 394.751C780.231 373.692 788.727 373.528 821.341 374.062L858.772 374.786C867.106 374.956 890.993 375.07 897.765 376.295C900.126 376.723 925.93 391.483 930.275 394.054C952.111 406.962 976.324 419.316 997.748 432.584C1003.18 435.943 1008.42 439.603 1013.45 443.547C1023.03 451.231 1031.08 460.669 1037.13 471.358C1044.98 485.042 1047.01 501.296 1042.79 516.492C1033.46 549.996 1002.54 566.726 974.563 582.576L776.509 694.663C756.925 705.793 728.105 723.186 708.412 731.961C654.623 755.921 582.266 758.662 525.603 743.781C511.922 740.258 498.597 735.478 485.798 729.498C467.979 721.014 443.984 706.519 426.337 696.515L242.46 592.404C222.761 581.268 200.694 570.223 183.381 555.726C162.984 538.649 149.203 512.415 156.808 485.494C166.361 451.673 196.359 435.432 224.695 419.372L434.183 300.733ZM924.133 473.221C918.577 444.865 873.455 437.637 851.184 440.131C841.67 441.06 828.743 443.352 820.191 447.79C804.729 455.814 789.024 465.017 773.834 473.625L585.947 580.028C569.582 589.293 547.592 600.858 532.224 610.699C528.765 612.944 525.676 615.71 523.066 618.906C511.978 632.516 518.483 646.732 530.83 655.852C545.438 666.642 572.611 672.132 590.029 669.59C600.001 668.652 612.757 666.364 621.726 661.765C637.061 653.898 652.669 644.693 667.708 636.154L856.067 529.486C873.769 519.457 891.719 509.388 909.312 499.142C912.755 497.061 916.133 493.709 918.681 490.674C922.36 486.298 925.277 479.045 924.133 473.221ZM618.767 480.839C613.46 453.52 568.252 444.937 545.507 448.039C521.996 450.426 512.997 456.247 493.064 467.576L457.265 487.929L412.985 512.928C404.496 517.721 396.01 522.489 387.701 527.514C369.391 538.587 365.373 558.317 383.578 572.267C401.045 585.648 425.339 588.747 446.672 586.901C469.641 584.171 478.743 578.216 498.286 567.099L535.201 546.104L579.252 521.249C592.93 513.508 622.639 500.779 618.767 480.839Z" fill="white"/>
<path d="M615.341 96.3871C637.455 96.3273 647.446 103.186 667.248 112.443C678.256 117.594 689.302 122.672 700.377 127.679C730.358 141.273 737.892 140.503 769.58 133.759C784.915 130.478 800.239 127.115 815.544 123.669C834.844 119.367 857.006 112.585 875.501 122.369C893.917 132.109 880.415 147.55 872.59 158.575C865.315 168.827 858.217 179.119 851.499 189.605C841.132 205.782 854.81 213.302 866.29 221.417C876.288 228.578 886.388 235.602 896.579 242.486C902.728 246.694 910.027 251.127 915.389 256.089C932.655 272.062 913.204 283.292 897.724 285.288C884.585 286.982 872.172 285.877 859.245 285.427C842.966 284.821 826.673 284.32 810.388 283.923C802.363 283.708 790.725 283.097 782.991 284.336L782.132 284.479C749.766 290.436 730.4 323.965 703.348 340.558C692.811 347.024 677.452 348.207 665.705 345C649.002 340.439 645.074 328.44 638.853 314.3C621.538 274.067 620.479 269.632 578.514 263.111C562.448 260.631 546.369 258.233 530.277 255.92C514.317 253.588 488.807 252.483 480.179 236.86C480.092 230.63 481.79 227.31 486.638 223.226C495.468 215.788 545.784 199.383 560.658 193.856C568.17 191.065 576.848 188.576 583.242 183.6C586.759 180.863 589.632 177.301 590.871 172.97C595.495 156.802 580.552 119.784 591.207 106.522C597.211 99.049 606.425 97.4801 615.341 96.3871Z" fill="white"/>
</svg>
