<svg width="1200" height="1200" viewBox="0 0 1200 1200" fill="none" xmlns="http://www.w3.org/2000/svg">
<path d="M720 0C888.016 0 972.024 0.000196894 1036.2 32.6982C1092.65 61.4602 1138.54 107.354 1167.3 163.803C1200 227.976 1200 311.984 1200 480V720C1200 888.016 1200 972.024 1167.3 1036.2C1138.54 1092.65 1092.65 1138.54 1036.2 1167.3C972.024 1200 888.016 1200 720 1200H480C311.984 1200 227.976 1200 163.803 1167.3C107.354 1138.54 61.4602 1092.65 32.6982 1036.2C0.000197358 972.024 0 888.016 0 720V480C0 311.984 0.000196894 227.976 32.6982 163.803C61.4602 107.354 107.354 61.4602 163.803 32.6982C227.976 0.000197358 311.984 0 480 0H720ZM1023.89 803.687C1000.58 825.782 969.75 840.494 941.784 856.302L836.323 916.016L759.252 959.662C740.195 970.465 718.208 983.985 698.013 991.447C663.777 1003.75 627.514 1009.41 591.164 1008.13C560.96 1007.3 530.429 1002.1 502.043 991.586C484.086 984.935 468.798 975.736 452.218 966.35L401.007 937.337L221.647 835.816C208.118 828.179 194.292 820.91 182.999 810.234C181.512 808.83 177.082 804.758 175.458 804.092C144.965 839.532 148.21 875.759 184.116 906.914C199.873 920.579 221.051 930.856 239.333 941.168L305.827 978.829L421.263 1044.2C449.187 1060.01 481.053 1080.49 511.812 1090.3C572.854 1109.75 646.027 1108.16 705.548 1083.78C723.256 1076.53 742.41 1064.58 759.064 1055.15L840.754 1008.86L943.484 950.724C969.883 935.794 1002.57 919.974 1023.88 899.095C1052.21 866.451 1052.23 836.391 1023.89 803.687ZM1023.8 628.345C1001.31 650.168 967.628 666.338 940.164 681.855L834.649 741.618L758.782 784.581C739.325 795.602 718.435 808.68 697.374 816.317C635.717 838.685 562.979 838.564 501.384 816.026C482.598 809.157 464.665 798.131 447.432 788.369L384.583 752.772L262.769 683.774C240.298 671.053 217.316 658.586 195.4 644.927C187.082 639.74 181.803 632.902 175.601 628.46C162.032 644.437 153.302 659.076 154.869 681.062C156.319 701.397 170.35 720.836 185.943 733.17C202.299 746.109 224.548 757.535 243.008 767.944L323.107 813.321L427.026 872.164C453.234 887.003 482.635 905.861 511.471 914.957C573.187 934.42 646.138 932.979 706.203 908.118C722.919 901.201 740.04 890.568 755.799 881.647L827.398 841.081L933.174 781.191L971.64 759.447C993.233 747.216 1006.08 741.038 1024.24 723.433C1051.89 690.474 1052.32 661.122 1023.8 628.345ZM270.247 393.606L224.695 419.372C196.359 435.432 166.361 451.672 156.808 485.493C149.203 512.414 162.984 538.648 183.381 555.726C200.694 570.223 222.761 581.268 242.46 592.403L324.518 638.853L426.337 696.515C443.984 706.518 467.979 721.013 485.798 729.498C498.597 735.477 511.922 740.258 525.603 743.78C582.266 758.662 654.623 755.92 708.412 731.961C728.105 723.186 756.925 705.793 776.509 694.663L930.027 607.781L974.563 582.575C1002.54 566.725 1033.46 549.996 1042.79 516.491C1047.01 501.295 1044.98 485.041 1037.13 471.357C1031.08 460.669 1023.03 451.231 1013.45 443.547C1008.42 439.602 1003.18 435.942 997.748 432.584C976.324 419.315 952.111 406.962 930.275 394.054C925.93 391.483 900.126 376.723 897.765 376.295C890.993 375.07 867.106 374.956 858.772 374.785L821.341 374.062C788.727 373.527 780.231 373.692 755.055 394.751L728.057 417.394C722.888 421.739 715.922 427.945 710.561 431.625C697.004 440.933 677.518 443.908 661.644 440.27C650.205 437.648 637.466 430.959 631.48 420.496C624.109 407.452 617.578 393.819 610.559 380.592C608.261 376.263 604.084 366.906 600.857 363.868C589.413 353.091 569.887 351.903 555.09 349.531L507.457 341.921C495.23 339.985 483.943 338.778 472.202 334.445C451.445 326.784 444.243 319.303 434.183 300.732L270.247 393.606ZM851.184 440.131C873.455 437.637 918.577 444.864 924.133 473.221C925.277 479.045 922.36 486.298 918.681 490.674C916.133 493.708 912.755 497.06 909.312 499.142C891.719 509.388 873.769 519.457 856.067 529.485L750.771 589.094L667.708 636.153C652.669 644.693 637.061 653.897 621.726 661.765C612.757 666.364 600.001 668.652 590.029 669.59C572.611 672.132 545.438 666.642 530.83 655.852C518.483 646.731 511.978 632.516 523.066 618.905C525.676 615.71 528.765 612.943 532.224 610.698C547.592 600.858 569.582 589.293 585.947 580.027L687.933 522.272L773.834 473.625C789.024 465.017 804.729 455.814 820.191 447.79C828.743 443.352 841.67 441.06 851.184 440.131ZM545.507 448.039C568.252 444.936 613.46 453.519 618.767 480.839C622.639 500.779 592.93 513.508 579.252 521.249L535.201 546.104L498.286 567.099C478.743 578.216 469.641 584.171 446.672 586.9C425.339 588.746 401.045 585.647 383.578 572.267C365.373 558.316 369.391 538.587 387.701 527.514C396.01 522.489 404.496 517.721 412.985 512.928L457.265 487.929L493.064 467.575C512.997 456.247 521.996 450.426 545.507 448.039ZM615.341 96.3867C606.425 97.4797 597.211 99.0486 591.207 106.521C580.552 119.784 595.495 156.801 590.871 172.97C589.632 177.301 586.759 180.863 583.242 183.6C576.848 188.575 568.17 191.064 560.658 193.855C545.784 199.382 495.468 215.787 486.638 223.226C481.79 227.309 480.092 230.63 480.179 236.859C488.807 252.483 514.317 253.588 530.277 255.92C546.369 258.233 562.448 260.63 578.514 263.11C620.479 269.632 621.538 274.067 638.853 314.3C645.074 328.44 649.002 340.439 665.705 345C677.452 348.206 692.811 347.023 703.348 340.558C730.4 323.965 749.766 290.435 782.132 284.479L782.991 284.336C790.725 283.097 802.363 283.708 810.388 283.923C826.673 284.32 842.966 284.821 859.245 285.427C872.172 285.876 884.585 286.981 897.724 285.288C913.204 283.292 932.655 272.062 915.389 256.089C910.027 251.127 902.728 246.694 896.579 242.485C886.388 235.601 876.288 228.578 866.29 221.417C854.81 213.301 841.132 205.782 851.499 189.604C858.217 179.118 865.315 168.826 872.59 158.574C880.415 147.549 893.917 132.109 875.501 122.368C857.006 112.585 834.844 119.367 815.544 123.669C800.239 127.115 784.915 130.478 769.58 133.759C737.892 140.503 730.358 141.272 700.377 127.679C689.302 122.672 678.256 117.594 667.248 112.442C647.446 103.185 637.455 96.3269 615.341 96.3867Z" fill="#0089FF"/>
</svg>
