<svg width="1200" height="1217" viewBox="0 0 1200 1217" fill="none" xmlns="http://www.w3.org/2000/svg">
<rect width="1200" height="1216.84" rx="302.402" fill="#0089FF"/>
<path d="M1027.36 813.704C1055.93 846.671 1055.91 876.971 1027.35 909.876C1005.87 930.922 972.923 946.87 946.313 961.919L842.759 1020.52L760.417 1067.18C743.629 1076.69 724.321 1088.73 706.471 1096.04C646.474 1120.61 572.715 1122.22 511.185 1102.61C480.179 1092.73 448.058 1072.08 419.911 1056.14L303.551 990.249L236.524 952.286C218.096 941.891 196.748 931.533 180.865 917.758C144.672 886.353 141.401 849.837 172.137 814.113C173.774 814.784 178.241 818.889 179.739 820.305C191.123 831.066 205.059 838.392 218.697 846.091L399.492 948.425L451.113 977.67C467.826 987.132 483.237 996.404 501.338 1003.11C529.951 1013.71 560.726 1018.95 591.172 1019.79C627.813 1021.07 664.367 1015.37 698.877 1002.97C719.233 995.446 741.396 981.818 760.606 970.929L838.294 926.933L944.599 866.741C972.789 850.807 1003.86 835.977 1027.36 813.704ZM1027.34 637C1056.1 670.04 1055.66 699.626 1027.78 732.849C1009.48 750.595 996.532 756.824 974.766 769.152L935.992 791.07L829.37 851.44L757.197 892.33C741.312 901.322 724.053 912.041 707.204 919.014C646.658 944.074 573.123 945.526 510.913 925.907C481.846 916.739 452.21 897.73 425.793 882.772L321.041 823.457L240.301 777.717C221.693 767.224 199.265 755.707 182.779 742.664C167.061 730.232 152.917 710.637 151.456 690.14C149.877 667.978 158.676 653.221 172.353 637.116C178.605 641.594 183.927 648.487 192.312 653.715C214.403 667.483 237.569 680.05 260.219 692.873L383.009 762.423L446.361 798.306C463.733 808.146 481.81 819.261 500.746 826.185C562.834 848.902 636.153 849.024 698.303 826.478C719.533 818.779 740.591 805.595 760.204 794.486L836.678 751.181L943.038 690.94C970.721 675.298 1004.68 658.998 1027.34 637ZM432.944 306.729C443.085 325.448 450.345 332.99 471.268 340.712C483.103 345.08 494.481 346.296 506.805 348.247L554.819 355.918C569.735 358.309 589.418 359.506 600.954 370.37C604.206 373.433 608.418 382.863 610.733 387.227C617.809 400.56 624.392 414.303 631.822 427.451C637.855 437.998 650.697 444.74 662.226 447.383C678.227 451.05 697.87 448.051 711.535 438.669C716.94 434.959 723.962 428.703 729.172 424.323L756.384 401.499C781.762 380.271 790.327 380.106 823.202 380.645L860.933 381.374C869.334 381.546 893.41 381.662 900.237 382.897C902.619 383.329 928.628 398.205 933.009 400.797C955.018 413.808 979.426 426.261 1001.02 439.636C1006.5 443.021 1011.78 446.711 1016.85 450.687C1026.51 458.432 1034.62 467.946 1040.72 478.72C1048.63 492.513 1050.68 508.897 1046.42 524.214C1037.02 557.987 1005.85 574.851 977.651 590.828L932.759 616.235L778.01 703.813C758.27 715.031 729.22 732.564 709.37 741.409C655.15 765.561 582.213 768.324 525.096 753.323C511.306 749.773 497.874 744.953 484.972 738.926C467.011 730.373 442.824 715.764 425.036 705.68L322.401 647.555L239.686 600.735C219.83 589.51 197.586 578.377 180.134 563.764C159.575 546.55 145.683 520.105 153.348 492.968C162.978 458.876 193.217 442.506 221.78 426.318L267.696 400.346L432.944 306.729ZM926.758 480.656C921.157 452.073 875.674 444.788 853.224 447.302C843.635 448.238 830.604 450.549 821.984 455.023C806.398 463.11 790.567 472.388 775.256 481.065L688.667 530.101L585.865 588.319C569.369 597.658 547.203 609.315 531.712 619.235C528.225 621.498 525.111 624.286 522.48 627.507C511.303 641.227 517.86 655.557 530.306 664.75C545.031 675.627 572.421 681.16 589.979 678.598C600.03 677.652 612.888 675.346 621.928 670.71C637.387 662.78 653.12 653.5 668.279 644.893L752.007 597.457L858.147 537.371C875.991 527.262 894.084 517.114 911.818 506.785C915.289 504.687 918.693 501.308 921.261 498.249C924.97 493.838 927.91 486.527 926.758 480.656ZM618.871 488.281C613.521 460.744 567.952 452.092 545.024 455.22C521.325 457.626 512.254 463.493 492.162 474.912L456.076 495.428L411.442 520.628C402.885 525.459 394.331 530.266 385.956 535.331C367.499 546.493 363.448 566.381 381.8 580.443C399.406 593.93 423.895 597.053 445.398 595.193C468.551 592.441 477.726 586.439 497.426 575.233L534.635 554.069L579.04 529.016C592.827 521.213 622.774 508.381 618.871 488.281ZM615.553 100.801C637.845 100.741 647.916 107.653 667.877 116.985C678.973 122.177 690.107 127.297 701.27 132.344C731.491 146.046 739.087 145.27 771.028 138.472C786.486 135.165 801.932 131.774 817.36 128.301C836.814 123.964 859.154 117.129 877.797 126.99C896.36 136.809 882.75 152.373 874.862 163.486C867.529 173.82 860.374 184.195 853.602 194.765C843.153 211.071 856.939 218.651 868.511 226.831C878.589 234.05 888.771 241.129 899.044 248.069C905.242 252.311 912.599 256.78 918.004 261.781C935.408 277.882 915.802 289.202 900.197 291.214C886.953 292.921 874.441 291.808 861.411 291.355C845.001 290.744 828.579 290.239 812.163 289.839C804.074 289.622 792.343 289.006 784.547 290.255L783.679 290.398C751.055 296.402 731.534 330.202 704.265 346.927C693.645 353.444 678.162 354.636 666.321 351.404C649.484 346.807 645.525 334.712 639.254 320.459C621.801 279.904 620.733 275.432 578.432 268.859C562.238 266.359 546.03 263.943 529.809 261.611C513.721 259.26 488.007 258.146 479.309 242.398C479.222 236.118 480.933 232.772 485.82 228.655C494.72 221.157 545.44 204.621 560.433 199.05C568.005 196.236 576.752 193.728 583.198 188.712C586.743 185.954 589.64 182.363 590.888 177.997C595.55 161.699 580.487 124.385 591.227 111.017C597.279 103.484 606.566 101.903 615.553 100.801Z" fill="#FEFEFE"/>
</svg>
