<svg width="1200" height="1200" viewBox="0 0 1200 1200" fill="none" xmlns="http://www.w3.org/2000/svg">
<g clip-path="url(#clip0_251_2)">
<path fill-rule="evenodd" clip-rule="evenodd" d="M927.509 136.039C1008.73 136.039 1074.57 201.879 1074.57 283.097V671.89L1060.01 643.359L1059.24 641.898C1026.81 581.035 939.345 581.035 906.911 641.898L906.15 643.359L867.32 719.439L782.966 732.856C713.324 743.932 685.591 829.289 735.422 879.184L756.234 900.023H726.703C692.874 900.023 660.08 911.687 633.848 933.047L458.004 1076.23C397.624 1125.4 308.315 1074.79 319.468 997.724C326.927 946.192 286.959 900.024 234.89 900.023H147.057C65.8399 900.023 1.02565e-06 834.183 0 752.966V283.097C7.17808e-06 201.879 65.8399 136.039 147.057 136.039H927.509Z" fill="#0089FF"/>
<path d="M956.043 668.825C967.305 646.757 998.837 646.757 1010.1 668.825L1054.87 756.542C1059.27 765.182 1067.55 771.194 1077.13 772.717L1174.38 788.184C1198.85 792.076 1208.6 822.066 1191.09 839.597L1121.5 909.278C1114.64 916.141 1111.48 925.868 1113 935.449L1128.34 1032.72C1132.2 1057.2 1106.69 1075.73 1084.6 1064.5L996.831 1019.85C988.185 1015.45 977.958 1015.45 969.312 1019.85L881.538 1064.5C859.455 1075.73 833.945 1057.2 837.806 1032.72L853.147 935.449C854.658 925.868 851.498 916.141 844.644 909.278L775.054 839.597C760.556 825.079 764.745 802.017 780.509 792.308L781.414 791.774C781.721 791.6 782.03 791.43 782.344 791.266L783.297 790.792C785.871 789.565 788.7 788.671 791.759 788.184L889.015 772.717C898.595 771.194 906.868 765.182 911.277 756.542L956.043 668.825Z" fill="#0089FF"/>
<path d="M75.3967 240.568C70.9805 240.568 67.4004 244.149 67.4004 248.565V275.172C67.4004 279.589 70.9805 283.169 75.3967 283.169H117.976C122.392 283.169 125.973 286.749 125.973 291.165V427.306C125.973 431.722 129.553 435.302 133.969 435.302H170.082C174.499 435.302 178.079 431.722 178.079 427.306V291.165C178.079 286.749 181.659 283.169 186.075 283.169H228.655C233.071 283.169 236.651 279.589 236.651 275.172V248.565C236.651 244.149 233.071 240.568 228.655 240.568H75.3967Z" fill="white"/>
<path fill-rule="evenodd" clip-rule="evenodd" d="M264.544 240.568C260.128 240.568 256.548 244.149 256.548 248.565V427.306C256.548 431.722 260.128 435.302 264.544 435.302H301.418C305.834 435.302 309.414 431.722 309.414 427.306V379.023C309.414 374.607 312.995 371.027 317.411 371.027H322.911C325.867 371.027 328.582 372.658 329.97 375.267L359.647 431.062C361.035 433.671 363.75 435.302 366.706 435.302H405.87C411.938 435.302 415.795 428.81 412.893 423.482L383.81 370.087C381.621 366.067 383.288 361.079 387.116 358.569C393.801 354.185 399.279 348.671 403.548 342.025C409.76 332.453 412.867 320.695 412.867 306.749C412.867 292.93 409.857 281.076 403.835 271.187C397.813 261.298 389.381 253.722 378.542 248.461C367.702 243.2 355.056 240.568 340.603 240.568H264.544ZM343.93 285.355C339.556 283.644 334.264 282.786 328.052 282.786H317.411C312.995 282.786 309.414 286.366 309.414 290.782V321.953C309.414 326.369 312.995 329.949 317.411 329.949H328.052C334.263 329.949 339.556 329.188 343.93 327.667C348.367 326.082 351.76 323.577 354.105 320.154C356.513 316.731 357.718 312.263 357.718 306.749C357.718 301.171 356.514 296.638 354.105 293.151C351.76 289.601 348.367 287.003 343.93 285.355Z" fill="white"/>
<path d="M443.4 240.568C438.984 240.568 435.404 244.149 435.404 248.565V365.321C435.404 380.154 438.89 392.99 445.862 403.83C452.899 414.606 462.724 422.941 475.338 428.836C487.953 434.668 502.66 437.585 519.459 437.585C536.13 437.585 550.772 434.668 563.387 428.836C576.001 422.941 585.826 414.606 592.863 403.83C599.962 392.99 603.511 380.154 603.511 365.321V248.565C603.511 244.149 599.931 240.568 595.515 240.568H558.641C554.225 240.568 550.645 244.149 550.645 248.565V360.756C550.645 366.777 549.314 372.166 546.652 376.92C543.99 381.611 540.314 385.289 535.623 387.951C530.933 390.614 525.544 391.944 519.459 391.944C513.437 391.944 508.048 390.613 503.294 387.951C498.604 385.289 494.925 381.611 492.263 376.92C489.601 372.166 488.27 366.777 488.27 360.756V248.565C488.27 244.149 484.69 240.568 480.274 240.568H443.4Z" fill="white"/>
<path d="M707.37 237.908C691.966 237.908 678.304 240.506 666.386 245.704C654.533 250.902 645.246 258.16 638.527 267.478C631.871 276.733 628.575 287.542 628.638 299.903C628.575 315.116 633.488 327.128 643.376 335.939C653.328 344.686 666.925 350.932 684.167 354.672L703.565 358.855C710.791 360.44 716.528 362.15 720.775 363.988C725.022 365.763 728.066 367.792 729.904 370.074C731.806 372.293 732.787 374.893 732.851 377.873C732.787 381.042 731.773 383.863 729.808 386.335C727.843 388.807 724.958 390.74 721.155 392.134C717.352 393.529 712.629 394.227 706.987 394.227C700.269 394.227 694.47 393.18 689.589 391.088C684.772 388.996 681.03 385.923 678.368 381.866C676.906 379.638 675.799 377.123 675.044 374.322C673.937 370.218 670.567 366.841 666.316 366.841H631.722C627.294 366.841 623.669 370.447 624.02 374.861C625.035 387.576 628.414 398.28 634.154 406.969C641.126 417.364 650.889 425.065 663.44 430.073C676.054 435.081 690.825 437.585 707.75 437.585C724.231 437.585 738.335 435.27 750.062 430.643C761.852 426.015 770.918 419.266 777.257 410.392C783.596 401.517 786.796 390.677 786.86 377.873C786.796 370.456 785.592 363.608 783.247 357.333C780.965 351.057 777.383 345.416 772.502 340.408C767.621 335.337 761.344 330.933 753.674 327.193C746.004 323.453 736.781 320.44 726.005 318.158L710.03 314.735C705.404 313.784 701.411 312.706 698.051 311.502C694.692 310.298 691.934 308.967 689.779 307.509C687.624 305.988 686.038 304.308 685.024 302.47C684.073 300.568 683.661 298.445 683.787 296.1C683.851 293.248 684.708 290.71 686.356 288.492C688.004 286.274 690.54 284.53 693.962 283.262C697.449 281.931 701.919 281.266 707.37 281.266C715.927 281.266 722.298 283.042 726.481 286.592C728.963 288.666 730.807 291.217 732.012 294.244C733.554 298.118 736.826 301.423 740.995 301.423H776.161C780.593 301.423 784.236 297.805 783.723 293.404C782.622 283.957 779.61 275.505 774.688 268.048C768.476 258.477 759.634 251.062 748.161 245.8C736.688 240.539 723.09 237.908 707.37 237.908Z" fill="white"/>
<path d="M809.641 240.568C805.225 240.568 801.645 244.149 801.645 248.565V275.172C801.645 279.589 805.225 283.169 809.641 283.169H852.22C856.637 283.169 860.217 286.749 860.217 291.165V427.306C860.217 431.722 863.797 435.302 868.213 435.302H904.327C908.743 435.302 912.323 431.722 912.323 427.306V291.165C912.323 286.749 915.903 283.169 920.319 283.169H962.899C967.315 283.169 970.895 279.589 970.895 275.172V248.565C970.895 244.149 967.315 240.568 962.899 240.568H809.641Z" fill="white"/>
<path d="M619.91 502.217C614.569 502.217 610.729 507.352 612.239 512.475L664.205 688.676C665.208 692.076 668.331 694.41 671.876 694.41H709.895C713.415 694.41 716.523 692.108 717.548 688.741L748.26 587.771C748.39 587.344 748.785 587.053 749.231 587.053C749.677 587.053 750.07 587.345 750.199 587.771L780.912 688.741C781.936 692.108 785.045 694.41 788.565 694.41H826.584C830.129 694.41 833.252 692.076 834.255 688.676L886.22 512.475C887.731 507.352 883.89 502.217 878.549 502.217H837.48C833.73 502.217 830.484 504.824 829.673 508.485L804.953 620.09C804.856 620.526 804.468 620.837 804.021 620.837C803.588 620.837 803.208 620.545 803.097 620.126L773.694 508.183C772.771 504.668 769.594 502.217 765.961 502.217H732.494C728.863 502.217 725.689 504.664 724.763 508.175L695.363 619.751C695.252 620.17 694.872 620.462 694.439 620.462C693.992 620.462 693.604 620.151 693.507 619.715L668.789 508.479C667.976 504.821 664.73 502.217 660.982 502.217H619.91Z" fill="white"/>
<path fill-rule="evenodd" clip-rule="evenodd" d="M511.616 499.59C494.098 499.59 478.269 503.374 464.13 510.944C450.053 518.452 438.854 529.558 430.533 544.26C422.275 558.899 418.146 576.917 418.146 598.313C418.146 619.585 422.275 637.573 430.533 652.275C438.854 666.915 450.054 678.049 464.13 685.682C478.269 693.252 494.098 697.039 511.616 697.039C529.008 697.039 544.773 693.285 558.912 685.778C573.051 678.208 584.282 667.102 592.602 652.463C600.923 637.761 605.084 619.71 605.084 598.313C605.084 576.917 600.923 558.9 592.602 544.26C584.281 529.558 573.051 518.452 558.912 510.944C544.773 503.375 529.008 499.59 511.616 499.59ZM533.387 551.205C527.507 547.076 520.249 545.01 511.616 545.01C502.982 545.01 495.692 547.076 489.748 551.205C483.868 555.271 479.396 561.277 476.33 569.222C473.327 577.105 471.824 586.802 471.824 598.313C471.824 609.825 473.327 619.555 476.33 627.5C479.396 635.383 483.868 641.389 489.748 645.518C495.692 649.585 502.982 651.617 511.616 651.617C520.249 651.617 527.507 649.585 533.387 645.518C539.331 641.389 543.805 635.383 546.808 627.5C549.874 619.555 551.405 609.825 551.405 598.313C551.405 586.802 549.874 577.105 546.808 569.222C543.805 561.277 539.331 555.271 533.387 551.205Z" fill="white"/>
<path d="M283.406 502.217C278.989 502.217 275.409 505.797 275.409 510.213V686.414C275.409 690.83 278.989 694.41 283.406 694.41H397.293C401.71 694.41 405.29 690.83 405.29 686.414V660.366C405.29 655.949 401.71 652.369 397.293 652.369H335.582C331.166 652.369 327.586 648.789 327.586 644.373V510.213C327.586 505.797 324.006 502.217 319.589 502.217H283.406Z" fill="white"/>
<path d="M129.078 502.217C124.662 502.217 121.082 505.797 121.082 510.213V686.414C121.082 690.83 124.662 694.41 129.078 694.41H165.262C169.678 694.41 173.258 690.83 173.258 686.414V627.331C173.258 622.915 176.838 619.335 181.254 619.335H239.962C244.378 619.335 247.958 615.755 247.958 611.339V585.288C247.958 580.872 244.378 577.292 239.962 577.292H181.254C176.838 577.292 173.258 573.712 173.258 569.295V552.256C173.258 547.84 176.838 544.26 181.254 544.26H248.221C252.637 544.26 256.217 540.68 256.217 536.264V510.213C256.217 505.797 252.637 502.217 248.221 502.217H129.078Z" fill="white"/>
</g>
<defs>
<clipPath id="clip0_251_2">
<rect width="1200" height="1200" fill="white"/>
</clipPath>
</defs>
</svg>
